<svg width="32" height="32" viewBox="0 0 32 32" fill="none" xmlns="http://www.w3.org/2000/svg">
<path d="M27.254 12.8643C27.7573 9.50184 25.1952 7.6944 21.6916 6.48865L22.8282 1.93391L20.0532 1.24304L18.9468 5.67786C18.2173 5.49607 17.4681 5.32477 16.7235 5.15496L17.8379 0.690868L15.0647 0L13.9275 4.55326C13.3238 4.41592 12.7308 4.28019 12.1556 4.13718L12.1588 4.12285L8.33201 3.16806L7.59382 6.12938C7.59382 6.12938 9.65263 6.60091 9.60924 6.62993C10.733 6.91016 10.9362 7.65339 10.9024 8.2425L9.60776 13.4314C9.68514 13.4511 9.78551 13.4795 9.89626 13.5239C9.80368 13.5009 9.70516 13.4759 9.60294 13.4514L7.78826 20.7204C7.65093 21.0615 7.30236 21.5734 6.51671 21.379C6.54452 21.4193 4.4998 20.8761 4.4998 20.8761L3.12207 24.0498L6.73327 24.9493C7.40507 25.1176 8.06341 25.2937 8.71173 25.4594L7.56342 30.0663L10.3352 30.7572L11.4724 26.1991C12.2296 26.4045 12.9644 26.594 13.6838 26.7725L12.5505 31.3091L15.3256 32L16.4738 27.4017C21.2057 28.2964 24.7638 27.9357 26.2614 23.6593C27.4682 20.2163 26.2013 18.2304 23.7119 16.9354C25.5251 16.5176 26.8908 15.3261 27.255 12.8647L27.2541 12.864L27.254 12.8643ZM20.9138 21.7473C20.0562 25.1902 14.2543 23.3291 12.3732 22.8624L13.8971 16.7589C15.778 17.2281 21.8101 18.1566 20.9139 21.7473H20.9138ZM21.772 12.8144C20.9897 15.9462 16.1607 14.3551 14.5942 13.9649L15.9758 8.42948C17.5423 8.81962 22.5869 9.54778 21.7722 12.8144H21.772Z" fill="white"/>
</svg>
