<svg width="32" height="32" viewBox="0 0 32 32" fill="none" xmlns="http://www.w3.org/2000/svg">
<g clip-path="url(#clip0_1049_5106)">
<path d="M26.8681 20.8458C26.239 17.7305 24.3299 15.8198 21.2962 15.038C20.2698 14.7739 19.2434 14.5202 18.217 14.2606V7.09545H20.2009C21.6848 7.09545 22.5865 8.0152 22.588 9.52538V11.5192H26.978C26.978 10.7181 26.9883 9.94075 26.978 9.16341C26.9326 6.09262 24.7082 3.34671 21.7258 2.80524C20.717 2.62278 19.6642 2.68953 18.6305 2.64355C18.4912 2.64355 18.3505 2.64355 18.1906 2.64355V0H13.8065V2.70289C12.937 2.70289 12.1085 2.61388 11.3138 2.7192C8.57186 3.07969 6.60852 4.5869 5.57333 7.16962C4.53814 9.75235 4.9399 12.2134 6.63931 14.4208C7.76248 15.8776 9.29767 16.655 11.0587 17.0392C11.9824 17.2394 12.893 17.499 13.7947 17.729V24.8867C12.9912 24.8867 12.2112 24.9194 11.434 24.8793C10.9721 24.8513 10.5324 24.6693 10.1836 24.3618C9.83474 24.0542 9.59643 23.6384 9.50588 23.1793C9.41791 22.712 9.4443 22.2224 9.43257 21.7418C9.42231 21.3145 9.43257 20.8873 9.43257 20.463H5.04107C5.04107 21.2448 5.04107 22.0073 5.04107 22.7698C5.05932 24.0741 5.45482 25.3443 6.17873 26.4237C6.90263 27.503 7.92321 28.3442 9.11439 28.8432C9.92812 29.1822 10.8004 29.3541 11.6804 29.349C12.3827 29.349 13.0851 29.349 13.8285 29.349V32.0015H18.2126V29.2734C19.1027 29.2734 19.9619 29.349 20.8021 29.26C24.7464 28.8491 27.6672 24.7963 26.8681 20.8458ZM13.7977 13.1673C12.8299 12.8914 11.8651 12.7045 10.9707 12.338C9.79767 11.8604 9.22582 10.5371 9.49415 9.26577C9.62384 8.67065 9.94463 8.1357 10.4064 7.74443C10.8682 7.35315 11.4451 7.12756 12.0469 7.10287C12.6173 7.08506 13.1892 7.10287 13.7962 7.10287L13.7977 13.1673ZM22.5792 22.4494C22.5007 23.1055 22.1934 23.7118 21.7126 24.1591C21.2317 24.6065 20.6088 24.8655 19.956 24.8897C19.3871 24.906 18.8167 24.8897 18.2185 24.8897V18.8668C18.4223 18.9098 18.6085 18.941 18.7918 18.9885C19.4282 19.1502 20.0719 19.2926 20.698 19.4884C21.3036 19.6826 21.8231 20.0848 22.1666 20.6255C22.5101 21.1662 22.6561 21.8114 22.5792 22.4494Z" fill="white"/>
</g>
<defs>
<clipPath id="clip0_1049_5106">
<rect width="32" height="32" fill="white"/>
</clipPath>
</defs>
</svg>
