<svg width="206" height="70" viewBox="0 0 206 70" fill="none" xmlns="http://www.w3.org/2000/svg">
<path fill-rule="evenodd" clip-rule="evenodd" d="M41.6912 0.0692164H49.7357C52.4911 0.0691532 54.8094 0.069099 56.7071 0.225796C58.6921 0.389705 60.583 0.745948 62.379 1.67082C65.1149 3.07963 67.3392 5.3276 68.7332 8.09255C69.6483 9.90771 70.0008 11.8186 70.163 13.8248C70.3181 15.7427 70.318 18.0857 70.3179 20.8704V28.5817C70.318 31.3665 70.3181 33.7094 70.163 35.6273C70.0008 37.6335 69.6483 39.5444 68.7332 41.3596C67.3392 44.1245 65.1149 46.3725 62.379 47.7813C60.583 48.7062 58.6921 49.0624 56.7071 49.2263C54.8094 49.383 52.491 49.383 49.7356 49.3829H25.7125C24.0251 49.3829 22.5024 48.3598 21.8494 46.7872C21.1965 45.2147 21.5408 43.3997 22.7229 42.1828L42.5612 21.7599L48.5405 27.6922L35.6962 40.9149H49.5678C52.5353 40.9149 54.509 40.9116 56.0248 40.7864C57.4917 40.6653 58.1571 40.4515 58.5751 40.2363C59.7343 39.6393 60.6768 38.6868 61.2675 37.5152C61.4805 37.0927 61.6921 36.4202 61.8119 34.9378C61.9358 33.4059 61.939 31.4112 61.939 28.4121V21.04C61.939 18.0409 61.9358 16.0462 61.8119 14.5143C61.6921 13.0319 61.4805 12.3594 61.2675 11.9369C60.6768 10.7654 59.7343 9.81282 58.5751 9.21587C58.1571 9.00062 57.4917 8.7868 56.0248 8.66568C54.509 8.54052 52.5353 8.53723 49.5678 8.53723H41.8603C38.8603 8.53723 36.8636 8.54055 35.3311 8.66772C33.8471 8.79087 33.1762 9.00831 32.7568 9.22625C31.5905 9.83223 30.6461 10.7985 30.0607 11.9844C29.8502 12.4109 29.6432 13.0915 29.5395 14.5927C29.4324 16.143 29.4534 18.1608 29.49 21.1925L29.532 24.6744L21.1537 24.7777L21.1097 21.1248C21.0756 18.3089 21.047 15.9412 21.1809 14.0027C21.321 11.9762 21.6552 10.0434 22.5629 8.20455C23.9443 5.40576 26.1732 3.12543 28.9255 1.69532C30.7339 0.755698 32.6421 0.394356 34.6455 0.228115C36.5617 0.0690985 38.9047 0.0691527 41.6912 0.0692164Z" fill="url(#paint0_linear_639_3779)"/>
<path fill-rule="evenodd" clip-rule="evenodd" d="M41.6912 0.0692164H49.7357C52.4911 0.0691532 54.8094 0.069099 56.7071 0.225796C58.6921 0.389705 60.583 0.745948 62.379 1.67082C65.1149 3.07963 67.3392 5.3276 68.7332 8.09255C69.6483 9.90771 70.0008 11.8186 70.163 13.8248C70.3181 15.7427 70.318 18.0857 70.3179 20.8704V28.5817C70.318 31.3665 70.3181 33.7094 70.163 35.6273C70.0008 37.6335 69.6483 39.5444 68.7332 41.3596C67.3392 44.1245 65.1149 46.3725 62.379 47.7813C60.583 48.7062 58.6921 49.0624 56.7071 49.2263C54.8094 49.383 52.491 49.383 49.7356 49.3829H25.7125C24.0251 49.3829 22.5024 48.3598 21.8494 46.7872C21.1965 45.2147 21.5408 43.3997 22.7229 42.1828L42.5612 21.7599L48.5405 27.6922L35.6962 40.9149H49.5678C52.5353 40.9149 54.509 40.9116 56.0248 40.7864C57.4917 40.6653 58.1571 40.4515 58.5751 40.2363C59.7343 39.6393 60.6768 38.6868 61.2675 37.5152C61.4805 37.0927 61.6921 36.4202 61.8119 34.9378C61.9358 33.4059 61.939 31.4112 61.939 28.4121V21.04C61.939 18.0409 61.9358 16.0462 61.8119 14.5143C61.6921 13.0319 61.4805 12.3594 61.2675 11.9369C60.6768 10.7654 59.7343 9.81282 58.5751 9.21587C58.1571 9.00062 57.4917 8.7868 56.0248 8.66568C54.509 8.54052 52.5353 8.53723 49.5678 8.53723H41.8603C38.8603 8.53723 36.8636 8.54055 35.3311 8.66772C33.8471 8.79087 33.1762 9.00831 32.7568 9.22625C31.5905 9.83223 30.6461 10.7985 30.0607 11.9844C29.8502 12.4109 29.6432 13.0915 29.5395 14.5927C29.4324 16.143 29.4534 18.1608 29.49 21.1925L29.532 24.6744L21.1537 24.7777L21.1097 21.1248C21.0756 18.3089 21.047 15.9412 21.1809 14.0027C21.321 11.9762 21.6552 10.0434 22.5629 8.20455C23.9443 5.40576 26.1732 3.12543 28.9255 1.69532C30.7339 0.755698 32.6421 0.394356 34.6455 0.228115C36.5617 0.0690985 38.9047 0.0691527 41.6912 0.0692164Z" fill="url(#paint1_radial_639_3779)"/>
<path fill-rule="evenodd" clip-rule="evenodd" d="M41.6912 0.0692164H49.7357C52.4911 0.0691532 54.8094 0.069099 56.7071 0.225796C58.6921 0.389705 60.583 0.745948 62.379 1.67082C65.1149 3.07963 67.3392 5.3276 68.7332 8.09255C69.6483 9.90771 70.0008 11.8186 70.163 13.8248C70.3181 15.7427 70.318 18.0857 70.3179 20.8704V28.5817C70.318 31.3665 70.3181 33.7094 70.163 35.6273C70.0008 37.6335 69.6483 39.5444 68.7332 41.3596C67.3392 44.1245 65.1149 46.3725 62.379 47.7813C60.583 48.7062 58.6921 49.0624 56.7071 49.2263C54.8094 49.383 52.491 49.383 49.7356 49.3829H25.7125C24.0251 49.3829 22.5024 48.3598 21.8494 46.7872C21.1965 45.2147 21.5408 43.3997 22.7229 42.1828L42.5612 21.7599L48.5405 27.6922L35.6962 40.9149H49.5678C52.5353 40.9149 54.509 40.9116 56.0248 40.7864C57.4917 40.6653 58.1571 40.4515 58.5751 40.2363C59.7343 39.6393 60.6768 38.6868 61.2675 37.5152C61.4805 37.0927 61.6921 36.4202 61.8119 34.9378C61.9358 33.4059 61.939 31.4112 61.939 28.4121V21.04C61.939 18.0409 61.9358 16.0462 61.8119 14.5143C61.6921 13.0319 61.4805 12.3594 61.2675 11.9369C60.6768 10.7654 59.7343 9.81282 58.5751 9.21587C58.1571 9.00062 57.4917 8.7868 56.0248 8.66568C54.509 8.54052 52.5353 8.53723 49.5678 8.53723H41.8603C38.8603 8.53723 36.8636 8.54055 35.3311 8.66772C33.8471 8.79087 33.1762 9.00831 32.7568 9.22625C31.5905 9.83223 30.6461 10.7985 30.0607 11.9844C29.8502 12.4109 29.6432 13.0915 29.5395 14.5927C29.4324 16.143 29.4534 18.1608 29.49 21.1925L29.532 24.6744L21.1537 24.7777L21.1097 21.1248C21.0756 18.3089 21.047 15.9412 21.1809 14.0027C21.321 11.9762 21.6552 10.0434 22.5629 8.20455C23.9443 5.40576 26.1732 3.12543 28.9255 1.69532C30.7339 0.755698 32.6421 0.394356 34.6455 0.228115C36.5617 0.0690985 38.9047 0.0691527 41.6912 0.0692164Z" fill="url(#paint2_radial_639_3779)"/>
<path fill-rule="evenodd" clip-rule="evenodd" d="M41.6912 0.0692164H49.7357C52.4911 0.0691532 54.8094 0.069099 56.7071 0.225796C58.6921 0.389705 60.583 0.745948 62.379 1.67082C65.1149 3.07963 67.3392 5.3276 68.7332 8.09255C69.6483 9.90771 70.0008 11.8186 70.163 13.8248C70.3181 15.7427 70.318 18.0857 70.3179 20.8704V28.5817C70.318 31.3665 70.3181 33.7094 70.163 35.6273C70.0008 37.6335 69.6483 39.5444 68.7332 41.3596C67.3392 44.1245 65.1149 46.3725 62.379 47.7813C60.583 48.7062 58.6921 49.0624 56.7071 49.2263C54.8094 49.383 52.491 49.383 49.7356 49.3829H25.7125C24.0251 49.3829 22.5024 48.3598 21.8494 46.7872C21.1965 45.2147 21.5408 43.3997 22.7229 42.1828L42.5612 21.7599L48.5405 27.6922L35.6962 40.9149H49.5678C52.5353 40.9149 54.509 40.9116 56.0248 40.7864C57.4917 40.6653 58.1571 40.4515 58.5751 40.2363C59.7343 39.6393 60.6768 38.6868 61.2675 37.5152C61.4805 37.0927 61.6921 36.4202 61.8119 34.9378C61.9358 33.4059 61.939 31.4112 61.939 28.4121V21.04C61.939 18.0409 61.9358 16.0462 61.8119 14.5143C61.6921 13.0319 61.4805 12.3594 61.2675 11.9369C60.6768 10.7654 59.7343 9.81282 58.5751 9.21587C58.1571 9.00062 57.4917 8.7868 56.0248 8.66568C54.509 8.54052 52.5353 8.53723 49.5678 8.53723H41.8603C38.8603 8.53723 36.8636 8.54055 35.3311 8.66772C33.8471 8.79087 33.1762 9.00831 32.7568 9.22625C31.5905 9.83223 30.6461 10.7985 30.0607 11.9844C29.8502 12.4109 29.6432 13.0915 29.5395 14.5927C29.4324 16.143 29.4534 18.1608 29.49 21.1925L29.532 24.6744L21.1537 24.7777L21.1097 21.1248C21.0756 18.3089 21.047 15.9412 21.1809 14.0027C21.321 11.9762 21.6552 10.0434 22.5629 8.20455C23.9443 5.40576 26.1732 3.12543 28.9255 1.69532C30.7339 0.755698 32.6421 0.394356 34.6455 0.228115C36.5617 0.0690985 38.9047 0.0691527 41.6912 0.0692164Z" fill="url(#paint3_radial_639_3779)"/>
<path fill-rule="evenodd" clip-rule="evenodd" d="M15.2387 61.2093C16.7545 61.3345 18.7282 61.3378 21.6957 61.3378H29.5325C32.2383 61.3378 34.0379 61.335 35.4241 61.2304C36.7675 61.1291 37.3836 60.9496 37.7694 60.7707C39.11 60.1492 40.1854 59.0623 40.8004 57.7075C40.9774 57.3176 41.155 56.695 41.2553 55.3372C41.3588 53.9363 41.3615 52.1176 41.3615 49.3829H49.7404L49.7404 49.5374C49.7405 52.077 49.7405 54.2138 49.611 55.9677C49.4756 57.8002 49.1819 59.5515 48.4162 61.2383C46.9649 64.4357 44.4268 67.0007 41.2631 68.4675C39.594 69.2413 37.8611 69.5381 36.0479 69.6749C34.3125 69.8059 32.1981 69.8058 29.6853 69.8058L21.5278 69.8058C18.7724 69.8058 16.4541 69.8059 14.5564 69.6492C12.5714 69.4853 10.6805 69.1291 8.88448 68.2042C6.14862 66.7954 3.92431 64.5474 2.53032 61.7825C1.61517 59.9673 1.26268 58.0564 1.1005 56.0502C0.945447 54.1323 0.945503 51.7893 0.945566 49.0046V41.2933C0.945503 38.5085 0.945447 36.1656 1.1005 34.2476C1.26268 32.2415 1.61518 30.3306 2.53032 28.5154C3.92431 25.7505 6.14862 23.5025 8.88448 22.0937C10.6805 21.1688 12.5714 20.8126 14.5564 20.6487C16.4541 20.492 18.7725 20.492 21.5279 20.4921H45.551C47.8647 20.4921 49.7404 22.3877 49.7404 24.7261C49.7404 27.0645 47.8647 28.9601 45.551 28.9601H21.6957C18.7282 28.9601 16.7545 28.9634 15.2387 29.0885C13.7718 29.2097 13.1064 29.4235 12.6884 29.6387C11.5292 30.2357 10.5867 31.1882 9.99598 32.3598C9.783 32.7823 9.57143 33.4547 9.45158 34.9372C9.32774 36.4691 9.32448 38.4638 9.32448 41.4628V48.835C9.32448 51.8341 9.32774 53.8287 9.45158 55.3606C9.57143 56.8431 9.783 57.5156 9.99598 57.9381C10.5867 59.1096 11.5292 60.0622 12.6884 60.6591C13.1064 60.8744 13.7718 61.0882 15.2387 61.2093Z" fill="url(#paint4_linear_639_3779)"/>
<path fill-rule="evenodd" clip-rule="evenodd" d="M15.2387 61.2093C16.7545 61.3345 18.7282 61.3378 21.6957 61.3378H29.5325C32.2383 61.3378 34.0379 61.335 35.4241 61.2304C36.7675 61.1291 37.3836 60.9496 37.7694 60.7707C39.11 60.1492 40.1854 59.0623 40.8004 57.7075C40.9774 57.3176 41.155 56.695 41.2553 55.3372C41.3588 53.9363 41.3615 52.1176 41.3615 49.3829H49.7404L49.7404 49.5374C49.7405 52.077 49.7405 54.2138 49.611 55.9677C49.4756 57.8002 49.1819 59.5515 48.4162 61.2383C46.9649 64.4357 44.4268 67.0007 41.2631 68.4675C39.594 69.2413 37.8611 69.5381 36.0479 69.6749C34.3125 69.8059 32.1981 69.8058 29.6853 69.8058L21.5278 69.8058C18.7724 69.8058 16.4541 69.8059 14.5564 69.6492C12.5714 69.4853 10.6805 69.1291 8.88448 68.2042C6.14862 66.7954 3.92431 64.5474 2.53032 61.7825C1.61517 59.9673 1.26268 58.0564 1.1005 56.0502C0.945447 54.1323 0.945503 51.7893 0.945566 49.0046V41.2933C0.945503 38.5085 0.945447 36.1656 1.1005 34.2476C1.26268 32.2415 1.61518 30.3306 2.53032 28.5154C3.92431 25.7505 6.14862 23.5025 8.88448 22.0937C10.6805 21.1688 12.5714 20.8126 14.5564 20.6487C16.4541 20.492 18.7725 20.492 21.5279 20.4921H45.551C47.8647 20.4921 49.7404 22.3877 49.7404 24.7261C49.7404 27.0645 47.8647 28.9601 45.551 28.9601H21.6957C18.7282 28.9601 16.7545 28.9634 15.2387 29.0885C13.7718 29.2097 13.1064 29.4235 12.6884 29.6387C11.5292 30.2357 10.5867 31.1882 9.99598 32.3598C9.783 32.7823 9.57143 33.4547 9.45158 34.9372C9.32774 36.4691 9.32448 38.4638 9.32448 41.4628V48.835C9.32448 51.8341 9.32774 53.8287 9.45158 55.3606C9.57143 56.8431 9.783 57.5156 9.99598 57.9381C10.5867 59.1096 11.5292 60.0622 12.6884 60.6591C13.1064 60.8744 13.7718 61.0882 15.2387 61.2093Z" fill="url(#paint5_radial_639_3779)"/>
<path d="M113.695 46.8877V51.2052C113.695 51.8214 113.198 52.3247 112.584 52.3247H88.8643C88.8317 52.3247 88.7954 52.3247 88.7628 52.321C87.5723 52.288 86.5261 51.6718 85.8944 50.7459C85.8907 50.7385 85.8875 50.7311 85.8801 50.7241C85.5916 50.2352 85.4257 49.6631 85.4257 49.0464C85.4257 48.3648 85.6311 47.7374 85.9812 47.2123C86.0102 47.1686 86.0391 47.125 86.0713 47.0846L104.083 21.8836H87.9514C87.3417 21.8836 86.8436 21.3803 86.8436 20.7604V16.4466C86.8436 15.8267 87.3417 15.3234 87.9514 15.3234H110.56C110.585 15.3234 110.611 15.3234 110.636 15.3271C110.643 15.3271 110.654 15.3234 110.665 15.3271C111.895 15.3601 112.974 16.0236 113.594 17.0117C113.602 17.0229 113.605 17.0298 113.609 17.0373C113.861 17.5039 114.002 18.0365 114.002 18.6016C114.002 19.2796 113.796 19.9106 113.446 20.4358C113.418 20.4795 113.389 20.5199 113.356 20.5635L95.3409 45.7682H112.584C113.198 45.7682 113.695 46.2715 113.695 46.8877Z" fill="white"/>
<path d="M128.868 46.7785C124.805 46.7785 121.85 43.5806 121.85 39.1572C121.85 34.6791 124.805 31.4811 128.868 31.4811C132.927 31.4811 135.828 34.6791 135.828 39.1572C135.828 43.5806 132.927 46.7785 128.868 46.7785ZM141.579 25.9893H136.939C136.326 25.9893 135.828 26.4927 135.828 27.1093V30.1977C133.721 27.2147 130.452 25.4535 126.652 25.4535C119.794 25.4535 114.782 31.215 114.782 39.1572C114.782 47.0994 119.794 52.8062 126.652 52.8062C130.452 52.8062 133.721 51.0486 135.828 48.113V51.1508C135.828 51.7995 136.351 52.3246 136.99 52.3246H141.579C142.222 52.3246 142.741 51.7995 142.741 51.1508V27.1599C142.741 26.5145 142.222 25.9893 141.579 25.9893Z" fill="white"/>
<path d="M163.436 25.4544C159.848 25.4544 156.893 27.1604 155.205 29.9878V27.1084C155.205 26.3622 154.784 25.9889 154.097 25.9889H149.453C148.769 25.9889 148.348 26.3622 148.348 27.1084V51.1522C148.348 51.8984 148.769 52.326 149.453 52.326H154.097C154.784 52.326 155.205 51.8984 155.205 51.1522V36.8643C155.205 33.3455 157.421 31.0001 160.744 31.0001C163.962 31.0001 166.125 33.3455 166.125 36.8643V51.1522C166.125 51.8004 166.645 52.326 167.285 52.326H171.876C172.516 52.326 173.036 51.8004 173.036 51.1522V35.8525C173.036 29.7194 169.078 25.4544 163.436 25.4544Z" fill="white"/>
<path d="M190.953 46.7785C186.891 46.7785 183.994 43.5806 183.994 39.1572C183.994 34.6791 186.891 31.4811 190.953 31.4811C195.07 31.4811 197.971 34.6791 197.971 39.1572C197.971 43.5806 195.07 46.7785 190.953 46.7785ZM191.008 25.4535C182.832 25.4535 176.921 31.215 176.921 39.1572C176.921 47.0994 182.832 52.8062 191.008 52.8062C199.133 52.8062 205.04 47.0994 205.04 39.1572C205.04 31.215 199.133 25.4535 191.008 25.4535" fill="white"/>
<defs>
<linearGradient id="paint0_linear_639_3779" x1="34" y1="49" x2="34.5606" y2="0.00641514" gradientUnits="userSpaceOnUse">
<stop offset="0.43118" stop-color="#498FFD"/>
<stop offset="1" stop-color="#16D1D6"/>
</linearGradient>
<radialGradient id="paint1_radial_639_3779" cx="0" cy="0" r="1" gradientUnits="userSpaceOnUse" gradientTransform="translate(20.5 15) rotate(-15.5725) scale(31.6623 31.6129)">
<stop stop-color="#18CFD7"/>
<stop offset="1" stop-color="#18CFD7" stop-opacity="0"/>
</radialGradient>
<radialGradient id="paint2_radial_639_3779" cx="0" cy="0" r="1" gradientUnits="userSpaceOnUse" gradientTransform="translate(39 29) rotate(152.354) scale(11.8533 11.8348)">
<stop stop-color="#4990FE"/>
<stop offset="0.353962" stop-color="#4990FE"/>
<stop offset="1" stop-color="#4990FE" stop-opacity="0"/>
</radialGradient>
<radialGradient id="paint3_radial_639_3779" cx="0" cy="0" r="1" gradientUnits="userSpaceOnUse" gradientTransform="translate(24.5 45) rotate(-45.9392) scale(21.5697 21.536)">
<stop stop-color="#4990FE"/>
<stop offset="0.405688" stop-color="#4990FE"/>
<stop offset="1" stop-color="#4990FE" stop-opacity="0"/>
</radialGradient>
<linearGradient id="paint4_linear_639_3779" x1="50" y1="70" x2="50.1803" y2="20.0007" gradientUnits="userSpaceOnUse">
<stop stop-color="#2950FF"/>
<stop offset="0.821717" stop-color="#498FFD"/>
</linearGradient>
<radialGradient id="paint5_radial_639_3779" cx="0" cy="0" r="1" gradientUnits="userSpaceOnUse" gradientTransform="translate(50 49) rotate(129.289) scale(21.319 21.0947)">
<stop offset="0.337169" stop-color="#2950FF"/>
<stop offset="0.792226" stop-color="#2950FF" stop-opacity="0"/>
</radialGradient>
</defs>
</svg>
