<svg width="12" height="12" viewBox="0 0 12 12" fill="none" xmlns="http://www.w3.org/2000/svg">
<path
    d="M11.7507 9.1823L7.51165 0.913156C6.83058 -0.303577 5.17034 -0.305194 4.48835 0.913156L0.249536 9.1823C-0.446698 10.4256 0.396232 12 1.76083 12H10.239C11.6025 12 12.4469 10.4269 11.7507 9.1823ZM6 10.5077C5.61239 10.5077 5.29687 10.1729 5.29687 9.76157C5.29687 9.35025 5.61239 9.01543 6 9.01543C6.38761 9.01543 6.70312 9.35025 6.70312 9.76157C6.70312 10.1729 6.38761 10.5077 6 10.5077ZM6.70312 7.52315C6.70312 7.93447 6.38761 8.26929 6 8.26929C5.61239 8.26929 5.29687 7.93447 5.29687 7.52315V3.79244C5.29687 3.38112 5.61239 3.0463 6 3.0463C6.38761 3.0463 6.70312 3.38112 6.70312 3.79244V7.52315Z" fill="currentColor"/>
</svg>
