<svg width="54" height="54" viewBox="0 0 54 54" fill="none" xmlns="http://www.w3.org/2000/svg">
<g clip-path="url(#clip0_3595_29407)">
<path d="M53.1921 33.5314C49.5856 47.9959 34.9339 56.7986 20.4661 53.1917C6.00439 49.5856 -2.79936 34.9346 0.808671 20.4713C4.41354 6.00531 19.0653 -2.79811 33.5286 0.807932C47.9953 4.41398 56.7985 19.0666 53.1917 33.5317L53.1919 33.5314H53.1921Z" fill="#F7931A"/>
<path d="M38.9071 23.153C39.4446 19.5599 36.7087 17.6285 32.9676 16.34L34.1813 11.4728L31.2181 10.7346L30.0367 15.4736C29.2577 15.2793 28.4577 15.0963 27.6626 14.9148L28.8526 10.1445L25.8914 9.40625L24.6771 14.2719C24.0324 14.1251 23.3993 13.9801 22.785 13.8272L22.7884 13.8119L18.7022 12.7916L17.914 15.9561C17.914 15.9561 20.1124 16.46 20.0661 16.491C21.266 16.7904 21.4829 17.5846 21.4469 18.2142L20.0645 23.759C20.1471 23.78 20.2543 23.8104 20.3725 23.8579C20.2737 23.8333 20.1685 23.8065 20.0593 23.7804L18.1216 31.548C17.975 31.9125 17.6028 32.4595 16.7638 32.2518C16.7935 32.2948 14.6102 31.7144 14.6102 31.7144L13.139 35.1059L16.9951 36.067C17.7124 36.2469 18.4154 36.4351 19.1077 36.6121L17.8815 41.5351L20.8412 42.2733L22.0555 37.4026C22.8641 37.6221 23.6487 37.8245 24.4169 38.0153L23.2067 42.8631L26.17 43.6014L27.396 38.6876C32.4488 39.6438 36.2481 39.2583 37.8473 34.6885C39.1359 31.0094 37.7831 28.8873 35.1249 27.5034C37.061 27.0569 38.5193 25.7836 38.9082 23.1534L38.9073 23.1527L38.9071 23.153ZM32.137 32.6453C31.2213 36.3245 25.026 34.3357 23.0174 33.8369L24.6446 27.3148C26.6531 27.8162 33.0941 28.8083 32.1372 32.6453H32.137ZM33.0534 23.0997C32.2181 26.4463 27.0617 24.7461 25.389 24.3292L26.8642 18.414C28.5369 18.8309 33.9236 19.609 33.0537 23.0997H33.0534Z" fill="white"/>
</g>
<defs>
<clipPath id="clip0_3595_29407">
<rect width="54" height="54" fill="white"/>
</clipPath>
</defs>
</svg>
