<svg width="54" height="54" viewBox="0 0 54 54" fill="none" xmlns="http://www.w3.org/2000/svg">
<rect width="54" height="54" rx="27" fill="url(#paint0_radial_3595_29400)"/>
<path fill-rule="evenodd" clip-rule="evenodd" d="M29.7951 11H33.5059C34.7769 11 35.8462 10.9999 36.7216 11.0719C37.6373 11.1471 38.5095 11.3105 39.3379 11.7349C40.5999 12.3814 41.626 13.4129 42.269 14.6817C42.6911 15.5146 42.8537 16.3915 42.9285 17.312C43.0001 18.1921 43 19.2672 43 20.545V24.0835C43 25.3614 43.0001 26.4365 42.9285 27.3166C42.8537 28.2371 42.6911 29.114 42.269 29.9469C41.626 31.2157 40.5999 32.2472 39.3379 32.8936C38.5095 33.318 37.6373 33.4815 36.7216 33.5567C35.8462 33.6286 34.7768 33.6286 33.5058 33.6286H22.4245C21.6461 33.6286 20.9437 33.1591 20.6425 32.4375C20.3413 31.7159 20.5001 30.8831 21.0454 30.3246L30.1964 20.9532L32.9545 23.6754L27.0297 29.7429H33.4284C34.7973 29.7429 35.7077 29.7413 36.4069 29.6839C37.0835 29.6283 37.3904 29.5302 37.5833 29.4314C38.118 29.1575 38.5528 28.7204 38.8252 28.1828C38.9235 27.989 39.0211 27.6804 39.0764 27.0001C39.1335 26.2972 39.135 25.3819 39.135 24.0057V20.6229C39.135 19.2467 39.1335 18.3314 39.0764 17.6284C39.0211 16.9482 38.9235 16.6396 38.8252 16.4457C38.5528 15.9081 38.118 15.471 37.5833 15.1971C37.3904 15.0984 37.0835 15.0002 36.4069 14.9447C35.7077 14.8872 34.7973 14.8857 33.4284 14.8857H29.8731C28.4892 14.8857 27.5682 14.8872 26.8613 14.9456C26.1768 15.0021 25.8673 15.1019 25.6738 15.2019C25.1359 15.48 24.7002 15.9233 24.4302 16.4675C24.3331 16.6632 24.2376 16.9755 24.1898 17.6644C24.1403 18.3758 24.1501 19.3017 24.1669 20.6928L24.1863 22.2906L20.3216 22.338L20.3013 20.6618C20.2856 19.3697 20.2723 18.2832 20.3341 17.3937C20.3987 16.4638 20.5529 15.5769 20.9716 14.7331C21.6088 13.4488 22.637 12.4024 23.9066 11.7462C24.7407 11.315 25.6209 11.1492 26.545 11.0729C27.429 10.9999 28.5098 11 29.7951 11Z" fill="white"/>
<path fill-rule="evenodd" clip-rule="evenodd" d="M17.5931 39.0553C18.2923 39.1128 19.2027 39.1143 20.5716 39.1143H24.1865C25.4347 39.1143 26.2648 39.113 26.9042 39.065C27.5239 39.0185 27.8081 38.9361 27.9861 38.8541C28.6044 38.5689 29.1005 38.0701 29.3842 37.4485C29.4658 37.2695 29.5478 36.9838 29.594 36.3608C29.6418 35.718 29.643 34.8834 29.643 33.6286H33.508L33.508 33.6995C33.508 34.8648 33.5081 35.8453 33.4483 36.6501C33.3859 37.491 33.2504 38.2946 32.8972 39.0686C32.2277 40.5358 31.057 41.7128 29.5976 42.3859C28.8277 42.741 28.0284 42.8772 27.192 42.94C26.3914 43 25.4161 43 24.257 43L20.4941 43C19.2231 43 18.1538 43.0001 17.2784 42.9281C16.3627 42.8529 15.4905 42.6895 14.662 42.2651C13.4001 41.6186 12.374 40.5871 11.731 39.3183C11.3089 38.4854 11.1463 37.6085 11.0715 36.688C10.9999 35.8079 11 34.7328 11 33.455V29.9165C11 28.6386 10.9999 27.5635 11.0715 26.6834C11.1463 25.7629 11.3089 24.886 11.731 24.0531C12.374 22.7843 13.4001 21.7528 14.662 21.1064C15.4905 20.682 16.3627 20.5185 17.2784 20.4433C18.1538 20.3714 19.2232 20.3714 20.4942 20.3714H31.5755C32.6428 20.3714 33.508 21.2413 33.508 22.3143C33.508 23.3873 32.6428 24.2571 31.5755 24.2571H20.5716C19.2027 24.2571 18.2923 24.2587 17.5931 24.3161C16.9165 24.3717 16.6095 24.4698 16.4167 24.5686C15.882 24.8425 15.4472 25.2796 15.1748 25.8172C15.0765 26.011 14.9789 26.3196 14.9236 26.9999C14.8665 27.7028 14.865 28.6181 14.865 29.9943V33.3771C14.865 34.7533 14.8665 35.6686 14.9236 36.3716C14.9789 37.0518 15.0765 37.3604 15.1748 37.5543C15.4472 38.0919 15.882 38.5289 16.4167 38.8029C16.6095 38.9016 16.9165 38.9998 17.5931 39.0553Z" fill="white"/>
<defs>
<radialGradient id="paint0_radial_3595_29400" cx="0" cy="0" r="1" gradientUnits="userSpaceOnUse" gradientTransform="rotate(45) scale(76.3675 97.0768)">
<stop stop-color="#16D1D6"/>
<stop offset="1" stop-color="#274CFF"/>
</radialGradient>
</defs>
</svg>
