<svg width="18" height="18" viewBox="0 0 18 18" fill="none" xmlns="http://www.w3.org/2000/svg">
<path d="M12.8583 8.32797C13.952 8.32797 14.8393 7.44133 14.8393 6.34758C14.8393 5.25383 13.952 4.36719 12.8583 4.36719" stroke="white" stroke-linecap="round" stroke-linejoin="round"/>
<path d="M13.769 10.4805C14.0957 10.503 14.4204 10.5493 14.7402 10.6213C15.1844 10.7082 15.7188 10.8903 15.909 11.2889C16.0304 11.5442 16.0304 11.8414 15.909 12.0973C15.7194 12.4959 15.1844 12.6774 14.7402 12.7687" stroke="white" stroke-linecap="round" stroke-linejoin="round"/>
<path d="M5.14154 8.32797C4.04779 8.32797 3.16052 7.44133 3.16052 6.34758C3.16052 5.25383 4.04779 4.36719 5.14154 4.36719" stroke="white" stroke-linecap="round" stroke-linejoin="round"/>
<path d="M4.23084 10.4805C3.90421 10.503 3.57947 10.5493 3.25972 10.6213C2.81547 10.7082 2.2811 10.8903 2.09151 11.2889C1.9695 11.5442 1.9695 11.8414 2.09151 12.0973C2.28048 12.4959 2.81547 12.6774 3.25972 12.7687" stroke="white" stroke-linecap="round" stroke-linejoin="round"/>
<path fill-rule="evenodd" clip-rule="evenodd" d="M8.99679 10.9072C11.2131 10.9072 13.1065 11.2426 13.1065 12.5848C13.1065 13.9263 11.2256 14.2742 8.99679 14.2742C6.77988 14.2742 4.88708 13.9388 4.88708 12.5967C4.88708 11.2545 6.76799 10.9072 8.99679 10.9072Z" stroke="white" stroke-linecap="round" stroke-linejoin="round"/>
<path fill-rule="evenodd" clip-rule="evenodd" d="M8.99668 8.99252C7.535 8.99252 6.36304 7.82055 6.36304 6.35825C6.36304 4.89658 7.535 3.72461 8.99668 3.72461C10.4583 3.72461 11.6303 4.89658 11.6303 6.35825C11.6303 7.82055 10.4583 8.99252 8.99668 8.99252Z" stroke="white" stroke-linecap="round" stroke-linejoin="round"/>
</svg>
