<svg width="18" height="18" viewBox="0 0 18 18" fill="none" xmlns="http://www.w3.org/2000/svg">
<path d="M1.95312 4.05841C1.95312 2.92139 5.18965 1.99964 9.08584 1.99964C12.982 1.99964 16.0623 2.92139 16.0623 4.05841C16.0623 5.19543 12.982 6.11719 9.08584 6.11719C5.18965 6.11719 1.95312 5.19543 1.95312 4.05841Z" stroke="white" stroke-miterlimit="10"/>
<path d="M16.042 10.6209C16.042 11.772 12.8833 12.7051 8.98682 12.7051C5.09034 12.7051 1.93164 11.772 1.93164 10.6209" stroke="white" stroke-miterlimit="10"/>
<path d="M16.042 7.32695C16.042 8.47801 12.8833 9.41113 8.98682 9.41113C5.09034 9.41113 1.93164 8.47801 1.93164 7.32695" stroke="white" stroke-miterlimit="10"/>
<path d="M1.95312 4.17326V13.915C1.95312 15.066 5.1116 15.999 9.00773 15.999C12.9039 15.999 16.0623 15.066 16.0623 13.915V4.17326" stroke="white" stroke-miterlimit="10"/>
</svg>
