<svg width="18" height="18" viewBox="0 0 18 18" fill="none" xmlns="http://www.w3.org/2000/svg">
<path d="M3.8 11.6111C3.52386 11.6111 3.3 11.835 3.3 12.1111C3.3 12.3873 3.52386 12.6111 3.8 12.6111L3.8 11.6111ZM14.2 12.1111L14.2 11.6111L14.2 12.1111ZM11.509 14.5934C11.2844 14.7542 11.2327 15.0665 11.3934 15.291C11.5542 15.5156 11.8665 15.5673 12.091 15.4066L11.509 14.5934ZM13.2104 13.9904L13.5014 14.397L13.2104 13.9904ZM13.2104 10.2318L12.9193 10.6384L13.2104 10.2318ZM12.091 8.81565C11.8665 8.65492 11.5542 8.70665 11.3934 8.93119C11.2327 9.15574 11.2844 9.46807 11.509 9.6288L12.091 8.81565ZM14.9841 12.2921L15.4765 12.379L15.4765 12.379L14.9841 12.2921ZM14.9841 11.9301L15.4765 11.8432L15.4765 11.8432L14.9841 11.9301ZM14.2 5.38889C14.4761 5.38889 14.7 5.16503 14.7 4.88889C14.7 4.61275 14.4761 4.38889 14.2 4.38889L14.2 5.38889ZM3.8 4.88889L3.8 5.38889L3.8 4.88889ZM5.90897 8.18435C6.13352 8.34508 6.44584 8.29335 6.60657 8.06881C6.7673 7.84426 6.71557 7.53194 6.49103 7.3712L5.90897 8.18435ZM4.78962 6.76822L4.4986 7.1748L4.78962 6.76822ZM4.78962 3.00956L4.4986 2.60298L4.78962 3.00956ZM6.49103 2.40658C6.71557 2.24584 6.76731 1.93352 6.60657 1.70897C6.44584 1.48443 6.13352 1.4327 5.90897 1.59343L6.49103 2.40658ZM3.01591 5.06993L2.52352 5.15683L2.52352 5.15683L3.01591 5.06993ZM3.01591 4.70785L2.52352 4.62095L2.52352 4.62095L3.01591 4.70785ZM3.8 12.6111L14.2 12.6111L14.2 11.6111L3.8 11.6111L3.8 12.6111ZM12.091 15.4066L13.5014 14.397L12.9193 13.5839L11.509 14.5934L12.091 15.4066ZM13.5014 9.8252L12.091 8.81565L11.509 9.6288L12.9193 10.6384L13.5014 9.8252ZM13.5014 14.397C14.0538 14.0016 14.5032 13.6809 14.8209 13.3952C15.1371 13.1108 15.4035 12.7927 15.4765 12.379L14.4917 12.2052C14.4781 12.2822 14.42 12.4108 14.1522 12.6516C13.8859 12.8911 13.4917 13.1742 12.9193 13.5839L13.5014 14.397ZM12.9193 10.6384C13.4917 11.048 13.8859 11.3311 14.1522 11.5706C14.42 11.8114 14.4781 11.94 14.4917 12.017L15.4765 11.8432C15.4035 11.4295 15.1371 11.1115 14.8209 10.8271C14.5032 10.5414 14.0538 10.2206 13.5014 9.8252L12.9193 10.6384ZM14.2 4.38889L3.8 4.38889L3.8 5.38889L14.2 5.38889L14.2 4.38889ZM6.49103 7.3712L5.08065 6.36165L4.4986 7.1748L5.90897 8.18435L6.49103 7.3712ZM5.08065 3.41613L6.49103 2.40658L5.90897 1.59343L4.4986 2.60298L5.08065 3.41613ZM5.08065 6.36165C4.50835 5.95199 4.11411 5.66888 3.8478 5.42938C3.58001 5.18855 3.52189 5.05999 3.5083 4.98303L2.52352 5.15683C2.59653 5.5705 2.86289 5.88854 3.17912 6.17293C3.49683 6.45864 3.94615 6.77936 4.4986 7.1748L5.08065 6.36165ZM4.4986 2.60298C3.94615 2.99842 3.49683 3.31914 3.17912 3.60485C2.86289 3.88924 2.59653 4.20728 2.52352 4.62095L3.5083 4.79475C3.52189 4.71778 3.58001 4.58923 3.8478 4.3484C4.11412 4.1089 4.50835 3.82579 5.08065 3.41613L4.4986 2.60298ZM3.5083 4.98303C3.50272 4.95142 3.5 4.92003 3.5 4.88889L2.5 4.88889C2.5 4.97868 2.50788 5.06822 2.52352 5.15683L3.5083 4.98303ZM3.5 4.88889C3.5 4.85775 3.50272 4.82635 3.5083 4.79475L2.52352 4.62095C2.50788 4.70956 2.5 4.7991 2.5 4.88889L3.5 4.88889ZM3.8 4.38889L3 4.38889L3 5.38889L3.8 5.38889L3.8 4.38889ZM15.4765 12.379C15.4921 12.2904 15.5 12.2009 15.5 12.1111L14.5 12.1111C14.5 12.1423 14.4973 12.1736 14.4917 12.2052L15.4765 12.379ZM15.5 12.1111C15.5 12.0213 15.4921 11.9318 15.4765 11.8432L14.4917 12.017C14.4973 12.0486 14.5 12.08 14.5 12.1111L15.5 12.1111ZM14.2 12.6111L15 12.6111L15 11.6111L14.2 11.6111L14.2 12.6111Z" fill="currentColor" fill-opacity="0.75"/>
</svg>
