<svg width="18" height="18" viewBox="0 0 18 18" fill="none" xmlns="http://www.w3.org/2000/svg">
<mask id="mask0_6957_14624" style="mask-type:luminance" maskUnits="userSpaceOnUse" x="0" y="0" width="18" height="17">
<path d="M0.5 1.90735e-06H17.5V17H0.5V1.90735e-06Z" fill="white"/>
</mask>
<g mask="url(#mask0_6957_14624)">
<path d="M14.3125 3.32031V15.0078C14.3125 15.7413 13.7179 16.3359 12.9844 16.3359H5.01562C4.28213 16.3359 3.6875 15.7413 3.6875 15.0078V3.32031" stroke="currentColor" stroke-miterlimit="10" stroke-linecap="square"/>
<path d="M6.34375 3.32031V1.99219C6.34375 1.2587 6.93838 0.664063 7.67187 0.664063H10.3281C11.0616 0.664063 11.6562 1.2587 11.6562 1.99219V3.32031" stroke="currentColor" stroke-miterlimit="10" stroke-linecap="square"/>
<path d="M2.35938 3.32031H15.6406" stroke="currentColor" stroke-miterlimit="10" stroke-linecap="round"/>
<path d="M6.34375 7.17188V13.8125" stroke="currentColor" stroke-miterlimit="10" stroke-linecap="round"/>
<path d="M9 7.17188V13.8125" stroke="currentColor" stroke-miterlimit="10" stroke-linecap="round"/>
<path d="M11.6562 7.17188V13.8125" stroke="currentColor" stroke-miterlimit="10" stroke-linecap="round"/>
</g>
</svg>
