<svg width="18" height="18" viewBox="0 0 18 18" fill="none" xmlns="http://www.w3.org/2000/svg">
<path d="M14.4938 7.10156C14.4938 7.10156 14.0866 12.1528 13.8503 14.2806C13.7378 15.2968 13.1101 15.8923 12.0818 15.9111C10.1251 15.9463 8.16609 15.9486 6.21009 15.9073C5.22084 15.8871 4.60359 15.2841 4.49334 14.2858C4.25559 12.1393 3.85059 7.10156 3.85059 7.10156" stroke="currentColor" stroke-linecap="round" stroke-linejoin="round"/>
<path d="M15.5312 4.67969H2.81274" stroke="currentColor" stroke-linecap="round" stroke-linejoin="round"/>
<path d="M13.0804 4.67925C12.4917 4.67925 11.9847 4.263 11.8692 3.68625L11.6869 2.77425C11.5744 2.3535 11.1934 2.0625 10.7592 2.0625H7.58443C7.15018 2.0625 6.76918 2.3535 6.65668 2.77425L6.47443 3.68625C6.35893 4.263 5.85193 4.67925 5.26318 4.67925" stroke="currentColor" stroke-linecap="round" stroke-linejoin="round"/>
</svg>
