<svg width="21" height="18" viewBox="0 0 21 18" fill="none" xmlns="http://www.w3.org/2000/svg">
<path d="M13.8301 5.3457C14.8457 5.3457 15.7051 4.69141 16.0371 3.79297H19.416C19.8164 3.79297 20.168 3.44141 20.168 3.00195C20.168 2.5625 19.8164 2.2207 19.416 2.2207H16.0371C15.7148 1.3125 14.8457 0.648438 13.8301 0.648438C12.8145 0.648438 11.9355 1.3125 11.6133 2.2207H1.27148C0.832031 2.2207 0.490234 2.5625 0.490234 3.00195C0.490234 3.44141 0.832031 3.79297 1.27148 3.79297H11.623C11.9453 4.69141 12.8145 5.3457 13.8301 5.3457ZM13.8301 4.14453C13.1855 4.14453 12.6875 3.63672 12.6875 2.99219C12.6875 2.34766 13.1855 1.84961 13.8301 1.84961C14.4746 1.84961 14.9727 2.34766 14.9727 2.99219C14.9727 3.63672 14.4746 4.14453 13.8301 4.14453ZM1.23242 8.17773C0.832031 8.17773 0.490234 8.5293 0.490234 8.96875C0.490234 9.4082 0.832031 9.75 1.23242 9.75H4.72852C5.05078 10.668 5.91992 11.3223 6.93555 11.3223C7.95117 11.3223 8.82031 10.668 9.15234 9.75H19.377C19.8164 9.75 20.168 9.4082 20.168 8.96875C20.168 8.5293 19.8164 8.17773 19.377 8.17773H9.14258C8.82031 7.2793 7.95117 6.625 6.93555 6.625C5.91992 6.625 5.05078 7.2793 4.72852 8.17773H1.23242ZM6.93555 10.1113C6.30078 10.1113 5.79297 9.60352 5.79297 8.96875C5.79297 8.32422 6.30078 7.82617 6.93555 7.82617C7.58008 7.82617 8.07812 8.32422 8.07812 8.96875C8.07812 9.60352 7.58008 10.1113 6.93555 10.1113ZM13.8301 17.2793C14.8457 17.2793 15.7148 16.625 16.0371 15.7168H19.416C19.8164 15.7168 20.168 15.375 20.168 14.9355C20.168 14.4961 19.8164 14.1445 19.416 14.1445H16.0371C15.7148 13.2363 14.8457 12.5918 13.8301 12.5918C12.8145 12.5918 11.9453 13.2363 11.623 14.1445H1.27148C0.832031 14.1445 0.490234 14.4961 0.490234 14.9355C0.490234 15.375 0.832031 15.7168 1.27148 15.7168H11.6133C11.9453 16.625 12.8145 17.2793 13.8301 17.2793ZM13.8301 16.0781C13.1855 16.0781 12.6875 15.5703 12.6875 14.9355C12.6875 14.2812 13.1855 13.793 13.8301 13.793C14.4746 13.793 14.9727 14.2812 14.9727 14.9355C14.9727 15.5703 14.4746 16.0781 13.8301 16.0781Z" fill="#1F8FEB"/>
</svg>
