<svg width="18" height="18" viewBox="0 0 18 18" fill="none" xmlns="http://www.w3.org/2000/svg">
<mask id="mask0_3595_22290" style="mask-type:luminance" maskUnits="userSpaceOnUse" x="0" y="0" width="18" height="18">
<path d="M0 1.90735e-06H18V18H0V1.90735e-06Z" fill="white"/>
</mask>
<g mask="url(#mask0_3595_22290)">
<path d="M15.3875 11.0857C15.3875 14.6135 12.5277 17.4727 8.99991 17.4727C5.47212 17.4727 2.6123 14.6135 2.6123 11.0857C2.6123 9.87233 2.95051 8.73791 3.53846 7.77192C3.53846 7.77192 4.35173 9.5078 5.74919 8.94674C6.29854 8.72617 6.92415 8.10707 6.3343 7.08602C5.69814 5.98486 6.0727 4.51037 7.43767 3.83439C9.03067 3.04541 8.99144 0.97425 8.99144 0.97425C8.99144 0.97425 11.4976 2.53796 10.62 4.57998C10.1135 5.75852 10.0531 7.18706 11.1063 7.50301C12.3671 7.88126 13.0326 6.13223 13.0326 6.13223C14.4695 7.30311 15.3875 9.08726 15.3875 11.0857Z" stroke="currentColor" stroke-miterlimit="10"/>
<path d="M11.6901 14.7834C11.6901 15.5263 11.3888 16.1985 10.9021 16.6853C10.4153 17.172 9.74257 17.4727 8.99972 17.4727C7.51451 17.4727 6.31037 16.2692 6.30985 14.7839V14.7829C6.30296 14.2228 6.42407 13.5607 6.76097 12.7923L7.86098 13.1138C7.90133 10.9872 9.87863 10.2385 9.87863 10.2385C9.94982 10.9383 10.1305 11.6153 10.5051 12.2274C10.7777 12.6722 11.0354 13.0532 11.3335 13.4799C11.5918 13.8503 11.6922 14.3392 11.6901 14.7834Z" stroke="currentColor" stroke-miterlimit="10"/>
</g>
</svg>
