<svg width="18" height="18" viewBox="0 0 18 18" fill="none" xmlns="http://www.w3.org/2000/svg">
<path d="M1.95312 4.06037C1.95312 2.92335 5.18965 2.00159 9.08584 2.00159C12.982 2.00159 16.0623 2.92335 16.0623 4.06037C16.0623 5.19739 12.982 6.11914 9.08584 6.11914C5.18965 6.11914 1.95312 5.19739 1.95312 4.06037Z" stroke="currentColor" stroke-miterlimit="10"/>
<path d="M16.042 10.6209C16.042 11.772 12.8833 12.7051 8.98682 12.7051C5.09034 12.7051 1.93164 11.772 1.93164 10.6209" stroke="currentColor" stroke-miterlimit="10"/>
<path d="M16.042 7.32793C16.042 8.47899 12.8833 9.41211 8.98682 9.41211C5.09034 9.41211 1.93164 8.47899 1.93164 7.32793" stroke="currentColor" stroke-miterlimit="10"/>
<path d="M1.95312 4.17424V13.916C1.95312 15.067 5.1116 16 9.00773 16C12.9039 16 16.0623 15.067 16.0623 13.916V4.17424" stroke="currentColor" stroke-miterlimit="10"/>
</svg>
