<svg width="16" height="16" viewBox="0 0 16 16" fill="none" xmlns="http://www.w3.org/2000/svg">
<path d="M8.00006 15.4993C12.1401 15.4993 15.5001 12.1385 15.5001 7.99927C15.5001 3.85852 12.1401 0.499267 8.00006 0.499267C3.85256 0.499267 0.500062 3.85852 0.500062 7.99927C0.500061 12.1385 3.85256 15.4993 8.00006 15.4993Z" fill="#1F8FEB"/>
<path
    d="M5.78216 5.8833C5.35442 5.8833 4.99769 5.52223 5.12171 5.11286C5.25084 4.68658 5.48111 4.32132 5.8125 4.01709C6.33301 3.5389 7.05241 3.2998 7.9707 3.2998C8.83398 3.2998 9.53223 3.52409 10.0654 3.97266C10.6029 4.42122 10.8716 4.99674 10.8716 5.69922C10.8716 6.60905 10.423 7.33057 9.52588 7.86377C9.11117 8.10498 8.82975 8.32715 8.68164 8.53027C8.53353 8.7334 8.45947 8.99365 8.45947 9.31104C8.45947 9.51437 8.29464 9.6792 8.09131 9.6792H7.43754C7.18759 9.6792 6.98399 9.47844 6.98047 9.22852C6.95085 8.76725 7.02913 8.38005 7.21533 8.06689C7.40576 7.75374 7.72314 7.46598 8.16748 7.20361C8.56527 6.9624 8.84033 6.74023 8.99268 6.53711C9.14502 6.32975 9.22119 6.0695 9.22119 5.75635C9.22119 5.41781 9.09847 5.14062 8.85303 4.9248C8.60758 4.70475 8.28597 4.59473 7.88818 4.59473C7.48193 4.59473 7.15397 4.7111 6.9043 4.94385C6.81951 5.02289 6.74766 5.1112 6.68873 5.20878C6.48247 5.55038 6.18121 5.8833 5.78216 5.8833ZM8.396 12.4023C8.21826 12.5758 8.00033 12.6626 7.74219 12.6626C7.48405 12.6626 7.264 12.5758 7.08203 12.4023C6.9043 12.2246 6.81543 12.0109 6.81543 11.7612C6.81543 11.5116 6.9043 11.3 7.08203 11.1265C7.264 10.953 7.48405 10.8662 7.74219 10.8662C8.00033 10.8662 8.21826 10.953 8.396 11.1265C8.57373 11.3 8.6626 11.5116 8.6626 11.7612C8.6626 12.0109 8.57373 12.2246 8.396 12.4023Z" fill="currentColor"/>
</svg>
