<svg width="54" height="54" viewBox="0 0 54 54" fill="none" xmlns="http://www.w3.org/2000/svg">
<rect width="54" height="54" rx="27" fill="#1F8FEB"/>
<g clip-path="url(#clip0_3504_11712)">
<path d="M38.3141 15.6863C36.0765 13.4487 33.2256 11.9248 30.1219 11.3074C27.0182 10.6901 23.8011 11.0069 20.8775 12.2179C17.9539 13.4289 15.455 15.4797 13.6969 18.1109C11.9388 20.7421 11.0004 23.8355 11.0004 27C11.0004 30.1645 11.9388 33.2579 13.6969 35.8891C15.455 38.5203 17.9539 40.5711 20.8775 41.7821C23.8011 42.9931 27.0182 43.3099 30.1219 42.6926C33.2256 42.0752 36.0765 40.5513 38.3141 38.3137L33.4492 33.4488C32.1738 34.7243 30.5488 35.5929 28.7797 35.9448C27.0106 36.2967 25.1768 36.1161 23.5104 35.4258C21.8439 34.7355 20.4195 33.5666 19.4174 32.0668C18.4153 30.567 17.8804 28.8038 17.8804 27C17.8804 25.1962 18.4153 23.433 19.4174 21.9332C20.4195 20.4334 21.8439 19.2645 23.5104 18.5742C25.1768 17.8839 27.0106 17.7033 28.7797 18.0552C30.5488 18.4071 32.1738 19.2757 33.4492 20.5512L38.3141 15.6863Z" fill="white"/>
<path d="M39 23L42.4641 25V29L39 31L35.5359 29V25L39 23Z" fill="white"/>
</g>
<defs>
<clipPath id="clip0_3504_11712">
<rect width="32" height="32" fill="white" transform="translate(11 11)"/>
</clipPath>
</defs>
</svg>
