<svg width="32" height="32" viewBox="0 0 32 32" fill="none" xmlns="http://www.w3.org/2000/svg">
<g clip-path="url(#clip0_1049_5123)">
<path d="M27.3142 4.68629C25.0765 2.44865 22.2256 0.924799 19.1219 0.307435C16.0182 -0.309928 12.8011 0.00692561 9.87753 1.21793C6.95391 2.42893 4.45505 4.47969 2.69695 7.11088C0.938847 9.74206 0.000463696 12.8355 0.000463696 16C0.000463696 19.1645 0.938847 22.2579 2.69695 24.8891C4.45505 27.5203 6.95391 29.5711 9.87753 30.7821C12.8011 31.9931 16.0182 32.3099 19.1219 31.6926C22.2256 31.0752 25.0765 29.5513 27.3142 27.3137L22.4493 22.4488C21.1738 23.7243 19.5488 24.5929 17.7797 24.9448C16.0106 25.2967 14.1769 25.1161 12.5104 24.4258C10.8439 23.7355 9.41958 22.5666 8.41746 21.0668C7.41534 19.567 6.88046 17.8038 6.88046 16C6.88046 14.1962 7.41534 12.433 8.41746 10.9332C9.41958 9.43342 10.8439 8.26449 12.5104 7.57422C14.1769 6.88395 16.0106 6.70334 17.7797 7.05524C19.5488 7.40714 21.1738 8.27573 22.4493 9.55119L27.3142 4.68629Z" fill="white"/>
<path d="M28 12L31.4641 14V18L28 20L24.5359 18V14L28 12Z" fill="white"/>
</g>
<defs>
<clipPath id="clip0_1049_5123">
<rect width="32" height="32" fill="white"/>
</clipPath>
</defs>
</svg>
