<svg width="32" height="32" viewBox="0 0 32 32" fill="none" xmlns="http://www.w3.org/2000/svg">
<path fill-rule="evenodd" clip-rule="evenodd" d="M18.795 1.16466e-06H22.5058C23.7768 -2.78353e-05 24.8462 -5.26912e-05 25.7215 0.071851C26.6372 0.147063 27.5094 0.310533 28.3379 0.734929C29.5999 1.38139 30.6259 2.41291 31.2689 3.68166C31.691 4.51459 31.8536 5.39146 31.9284 6.31201C32 7.19208 31.9999 8.2672 31.9999 9.54504V13.0835C31.9999 14.3614 32 15.4365 31.9284 16.3165C31.8536 17.2371 31.691 18.114 31.2689 18.9469C30.6259 20.2156 29.5999 21.2472 28.3379 21.8936C27.5094 22.318 26.6372 22.4815 25.7215 22.5567C24.8461 22.6286 23.7768 22.6286 22.5057 22.6286H11.4244C10.646 22.6286 9.94362 22.1591 9.64243 21.4375C9.34124 20.7159 9.50007 19.8831 10.0454 19.3246L19.1963 9.95321L21.9544 12.6753L16.0297 18.7428H22.4283C23.7972 18.7428 24.7076 18.7413 25.4068 18.6839C26.0834 18.6283 26.3904 18.5302 26.5832 18.4314C27.1179 18.1575 27.5527 17.7204 27.8251 17.1828C27.9234 16.989 28.021 16.6804 28.0763 16.0001C28.1334 15.2972 28.1349 14.3819 28.1349 13.0057V9.62285C28.1349 8.24667 28.1334 7.33138 28.0763 6.62843C28.021 5.94817 27.9234 5.63959 27.8251 5.44574C27.5527 4.90813 27.1179 4.47105 26.5832 4.19712C26.3904 4.09835 26.0834 4.00024 25.4068 3.94466C24.7076 3.88722 23.7972 3.88571 22.4283 3.88571H18.873C17.4892 3.88571 16.5681 3.88724 15.8613 3.94559C15.1767 4.0021 14.8672 4.10188 14.6738 4.20189C14.1358 4.47995 13.7001 4.92333 13.4301 5.46752C13.333 5.66323 13.2376 5.97554 13.1897 6.66441C13.1403 7.37575 13.15 8.30166 13.1669 9.69281L13.1863 11.2906L9.32153 11.338L9.30119 9.66178C9.28549 8.36965 9.27229 7.28317 9.33408 6.39367C9.39868 5.46376 9.55286 4.57686 9.97152 3.73306C10.6087 2.44878 11.6369 1.40241 12.9065 0.746168C13.7406 0.315007 14.6209 0.149198 15.545 0.0729149C16.4289 -5.29169e-05 17.5097 -2.80655e-05 18.795 1.16466e-06Z" fill="white"/>
<path fill-rule="evenodd" clip-rule="evenodd" d="M6.59304 28.0553C7.29224 28.1128 8.20266 28.1143 9.57151 28.1143H13.1864C14.4346 28.1143 15.2647 28.113 15.9041 28.065C16.5238 28.0185 16.808 27.9361 16.986 27.8541C17.6043 27.5689 18.1004 27.0701 18.3841 26.4485C18.4657 26.2695 18.5477 25.9838 18.5939 25.3608C18.6417 24.718 18.6429 23.8834 18.6429 22.6286H22.5079L22.5079 22.6995C22.508 23.8648 22.508 24.8453 22.4482 25.6501C22.3858 26.491 22.2503 27.2946 21.8971 28.0686C21.2276 29.5358 20.0569 30.7128 18.5975 31.3859C17.8276 31.741 17.0283 31.8772 16.1919 31.94C15.3914 32 14.4161 32 13.257 32L9.49405 32C8.22305 32 7.15368 32.0001 6.27831 31.9281C5.36266 31.8529 4.49046 31.6895 3.66197 31.2651C2.39998 30.6186 1.37395 29.5871 0.730936 28.3183C0.3088 27.4854 0.146202 26.6085 0.0713882 25.688C-0.000131607 24.8079 -0.000106812 23.7328 -7.62939e-05 22.455V18.9165C-0.000106812 17.6386 -0.000131607 16.5635 0.0713882 15.6835C0.146202 14.7629 0.308802 13.886 0.730936 13.0531C1.37395 11.7844 2.39998 10.7528 3.66197 10.1064C4.49046 9.68197 5.36266 9.51851 6.27831 9.44329C7.15369 9.37139 8.22308 9.37141 9.49412 9.37144H20.5754C21.6427 9.37144 22.5079 10.2413 22.5079 11.3143C22.5079 12.3873 21.6427 13.2572 20.5754 13.2572H9.57151C8.20266 13.2572 7.29224 13.2587 6.59305 13.3161C5.91641 13.3717 5.60947 13.4698 5.41665 13.5686C4.88191 13.8425 4.44715 14.2796 4.17469 14.8172C4.07644 15.011 3.97885 15.3196 3.92356 15.9999C3.86644 16.7028 3.86493 17.6181 3.86493 18.9943V22.3771C3.86493 23.7533 3.86644 24.6686 3.92356 25.3716C3.97885 26.0518 4.07644 26.3604 4.17469 26.5543C4.44715 27.0919 4.88191 27.529 5.41665 27.8029C5.60947 27.9016 5.91641 27.9998 6.59304 28.0553Z" fill="white"/>
</svg>
