<svg width="18" height="18" viewBox="0 0 18 18" fill="none" xmlns="http://www.w3.org/2000/svg">
<path d="M3.29065 15.9474L3.5519 15.5211V15.5211L3.29065 15.9474ZM2.05262 14.7094L2.47894 14.4481L2.05262 14.7094ZM15.9474 14.7094L15.5211 14.4481L15.9474 14.7094ZM14.7094 15.9474L14.4481 15.5211L14.7094 15.9474ZM14.7094 4.3026L14.4481 4.72892L14.7094 4.3026ZM15.9474 5.54063L15.5211 5.80188L15.9474 5.54063ZM3.29065 4.3026L3.5519 4.72892L3.29065 4.3026ZM2.05262 5.54063L2.47894 5.80188L2.05262 5.54063ZM13.8576 1.90984L14.2184 1.56372V1.56372L13.8576 1.90984ZM2.88319 2.16809L3.18508 2.56666L2.88319 2.16809ZM2.14085 2.942L2.55107 3.22788L2.14085 2.942ZM14.25 3.84774H14.75L14.75 3.84527L14.25 3.84774ZM13.7727 10.1477C14.0489 10.1477 14.2727 9.92388 14.2727 9.64774C14.2727 9.3716 14.0489 9.14774 13.7727 9.14774V10.1477ZM11.7273 9.14774C11.4512 9.14774 11.2273 9.3716 11.2273 9.64774C11.2273 9.92388 11.4512 10.1477 11.7273 10.1477V9.14774ZM7.87502 4.25H10.125V3.25H7.87502V4.25ZM10.125 16H7.87502V17H10.125V16ZM7.87502 16C6.6378 16 5.745 15.9995 5.04767 15.9332C4.35778 15.8676 3.91102 15.7411 3.5519 15.5211L3.0294 16.3737C3.57205 16.7063 4.18993 16.8561 4.95302 16.9287C5.70866 17.0005 6.65717 17 7.87502 17V16ZM1.00002 10.125C1.00002 11.3429 0.999494 12.2914 1.07134 13.047C1.1439 13.8101 1.29377 14.428 1.6263 14.9706L2.47894 14.4481C2.25887 14.089 2.13245 13.6422 2.06685 12.9524C2.00055 12.255 2.00002 11.3622 2.00002 10.125H1.00002ZM3.5519 15.5211C3.1146 15.2531 2.74692 14.8854 2.47894 14.4481L1.6263 14.9706C1.97674 15.5425 2.45754 16.0233 3.0294 16.3737L3.5519 15.5211ZM10.125 17C11.3429 17 12.2914 17.0005 13.047 16.9287C13.8101 16.8561 14.428 16.7063 14.9706 16.3737L14.4481 15.5211C14.089 15.7411 13.6423 15.8676 12.9524 15.9332C12.255 15.9995 11.3622 16 10.125 16V17ZM15.5211 14.4481C15.2531 14.8854 14.8854 15.2531 14.4481 15.5211L14.9706 16.3737C15.5425 16.0233 16.0233 15.5425 16.3737 14.9706L15.5211 14.4481ZM14.4481 4.72892C14.8854 4.9969 15.2531 5.36457 15.5211 5.80188L16.3737 5.27938C16.0233 4.70752 15.5425 4.22672 14.9706 3.87628L14.4481 4.72892ZM7.87502 3.25C6.65717 3.25 5.70866 3.24947 4.95302 3.32132C4.18993 3.39387 3.57205 3.54375 3.0294 3.87628L3.5519 4.72892C3.91102 4.50885 4.35778 4.38243 5.04767 4.31683C5.745 4.25053 6.6378 4.25 7.87502 4.25V3.25ZM2.00002 10.125C2.00002 8.88778 2.00055 7.99498 2.06685 7.29765C2.13245 6.60776 2.25887 6.16099 2.47894 5.80188L1.6263 5.27938C1.29377 5.82203 1.1439 6.43991 1.07134 7.203C0.999494 7.95864 1.00002 8.90715 1.00002 10.125H2.00002ZM3.0294 3.87628C2.45754 4.22672 1.97674 4.70752 1.6263 5.27938L2.47894 5.80188C2.74692 5.36457 3.1146 4.9969 3.5519 4.72892L3.0294 3.87628ZM7.53983 2H11.5664V1H7.53983V2ZM11.5664 2C12.2138 2 12.647 2.00115 12.9697 2.04639C13.2758 2.0893 13.4076 2.16303 13.4968 2.25595L14.2184 1.56372C13.9145 1.24681 13.5333 1.11562 13.1085 1.05607C12.7003 0.998848 12.1844 1 11.5664 1V2ZM7.53983 1C6.29322 1 5.31642 0.999255 4.5425 1.08667C3.75793 1.17529 3.1225 1.35958 2.58129 1.76952L3.18508 2.56666C3.5259 2.30851 3.96059 2.15876 4.65473 2.08035C5.35952 2.00075 6.27002 2 7.53983 2V1ZM2.00002 7.79672C2.00002 6.47431 2.00065 5.52103 2.07745 4.78208C2.15339 4.05132 2.29929 3.58917 2.55107 3.22788L1.73064 2.65612C1.34159 3.21439 1.16707 3.86787 1.0828 4.67872C0.999389 5.48138 1.00002 6.49569 1.00002 7.79672H2.00002ZM2.58129 1.76952C2.25409 2.01736 1.96718 2.3167 1.73064 2.65612L2.55107 3.22788C2.72845 2.97335 2.94256 2.75036 3.18508 2.56666L2.58129 1.76952ZM14.75 3.84527C14.7475 3.33725 14.7366 2.90251 14.6741 2.54383C14.6093 2.17244 14.4825 1.83905 14.2184 1.56372L13.4968 2.25595C13.5782 2.34085 13.6451 2.46418 13.6889 2.71556C13.735 2.97966 13.7475 3.33376 13.75 3.85021L14.75 3.84527ZM1.00002 7.79672C1.00002 8.53067 0.984906 9.19747 1.00019 9.7635L1.99983 9.7365C1.98498 9.18681 2.00002 8.56583 2.00002 7.79672H1.00002ZM16.125 11.1932H11.7273V12.1932H16.125V11.1932ZM9.18184 9.64774C9.18184 11.0536 10.3215 12.1932 11.7273 12.1932V11.1932C10.8738 11.1932 10.1818 10.5013 10.1818 9.64774H9.18184ZM10.1818 9.64774C10.1818 8.79421 10.8738 8.10228 11.7273 8.10228V7.10228C10.3215 7.10228 9.18184 8.24192 9.18184 9.64774H10.1818ZM13.7727 9.14774H11.7273V10.1477H13.7727V9.14774ZM10.125 4.25C11.1628 4.25 11.9602 4.25022 12.6065 4.2901C13.2523 4.32994 13.7093 4.40785 14.0725 4.54578L14.4275 3.61093C13.9261 3.4205 13.3527 3.33424 12.6681 3.29199C11.984 3.24979 11.1513 3.25 10.125 3.25V4.25ZM14.0725 4.54578C14.2087 4.59752 14.3324 4.65802 14.4481 4.72892L14.9706 3.87628C14.7991 3.77113 14.6189 3.68362 14.4275 3.61093L14.0725 4.54578ZM13.75 3.84774V4.07836H14.75V3.84774H13.75ZM11.7273 8.10228H16.4583V7.10228H11.7273V8.10228ZM17 10.125C17 9.09343 17.0002 8.25729 16.9574 7.57109L15.9593 7.63347C15.9998 8.28144 16 9.08176 16 10.125H17ZM16.9574 7.57109C16.8987 6.63325 16.7572 5.90514 16.3737 5.27938L15.5211 5.80188C15.7758 6.21755 15.904 6.74812 15.9593 7.63347L16.9574 7.57109ZM16 10.125C16 10.7155 16 11.2296 15.9924 11.6849L16.9923 11.7015C17 11.2362 17 10.7131 17 10.125H16ZM15.9924 11.6849C15.9681 13.1525 15.8609 13.8936 15.5211 14.4481L16.3737 14.9706C16.8739 14.1545 16.9683 13.1487 16.9923 11.7015L15.9924 11.6849ZM16.125 12.1932H16.4924V11.1932H16.125V12.1932Z" fill="white" fill-opacity="0.75"/>
</svg>
