<svg width="18" height="18" viewBox="0 0 18 18" fill="none" xmlns="http://www.w3.org/2000/svg">
<path fill-rule="evenodd" clip-rule="evenodd" d="M8.79607 16.4352C8.87913 16.4786 8.972 16.5007 9.06487 16.5C9.15774 16.4992 9.24986 16.4764 9.33367 16.4323L12.0096 15.0018C12.7684 14.5973 13.3626 14.145 13.8262 13.6185C14.8342 12.4712 15.3847 11.0069 15.3749 9.49698L15.3431 4.51649C15.3401 3.94283 14.9634 3.43096 14.4061 3.24489L9.42805 1.57467C9.1283 1.47318 8.79985 1.47539 8.50538 1.57982L3.54618 3.30961C2.99197 3.50303 2.622 4.01858 2.62502 4.59297L2.65673 9.56979C2.66655 11.0819 3.23586 12.5395 4.26046 13.6751C4.7286 14.1943 5.32811 14.64 6.09525 15.0379L8.79607 16.4352ZM7.74541 11.0007C7.88779 11.1354 8.07249 11.2018 8.25719 11.2C8.44189 11.199 8.62563 11.1308 8.76608 10.9942L12.4918 7.37787C12.7718 7.10572 12.7689 6.66843 12.4861 6.39997C12.2023 6.13151 11.7453 6.13336 11.4654 6.40551L8.24661 9.52924L6.92869 8.28196C6.64491 8.0135 6.18893 8.01627 5.90803 8.28842C5.6281 8.56057 5.63098 8.99785 5.91477 9.26631L7.74541 11.0007Z" fill="white"/>
</svg>
