<svg width="18" height="18" viewBox="0 0 18 18" fill="none" xmlns="http://www.w3.org/2000/svg">
<path d="M10.131 4.36922C10.189 4.42572 10.437 4.63906 10.641 4.8378C11.924 6.00292 14.024 9.04238 14.665 10.6332C14.768 10.8748 14.986 11.4856 15 11.812C15 12.1247 14.928 12.4228 14.782 12.7073C14.578 13.0619 14.257 13.3463 13.878 13.5022C13.615 13.6025 12.828 13.7584 12.814 13.7584C11.953 13.9143 10.554 14 9.008 14C7.535 14 6.193 13.9143 5.319 13.7867C5.305 13.772 4.327 13.6162 3.992 13.4457C3.38 13.133 3 12.5222 3 11.8685V11.812C3.015 11.3863 3.395 10.491 3.409 10.491C4.051 8.98587 6.048 6.01656 7.375 4.82319C7.375 4.82319 7.716 4.48709 7.929 4.34096C8.235 4.11301 8.614 4 8.993 4C9.416 4 9.81 4.12762 10.131 4.36922Z" fill="#1F8FEB"/>
</svg>
