<svg width="18" height="18" viewBox="0 0 18 18" fill="none" xmlns="http://www.w3.org/2000/svg">
<g id="purchase_icon">
<g id="Arrow - Down 2">
<path id="Arrow - Down 2_2" d="M7.869 13.6308C7.811 13.5743 7.563 13.3609 7.359 13.1622C6.076 11.9971 3.976 8.95762 3.335 7.36678C3.232 7.12518 3.014 6.51437 3 6.18802C3 5.8753 3.072 5.5772 3.218 5.29274C3.422 4.93814 3.743 4.65368 4.122 4.49781C4.385 4.39747 5.172 4.2416 5.186 4.2416C6.047 4.08573 7.446 4 8.992 4C10.465 4 11.807 4.08573 12.681 4.21335C12.695 4.22796 13.673 4.38383 14.008 4.55431C14.62 4.86702 15 5.47784 15 6.13151V6.18802C14.985 6.61374 14.605 7.50901 14.591 7.50901C13.949 9.01413 11.952 11.9834 10.625 13.1768C10.625 13.1768 10.284 13.5129 10.071 13.659C9.765 13.887 9.386 14 9.007 14C8.584 14 8.19 13.8724 7.869 13.6308Z" fill="#16D1D6"/>
</g>
</g>
</svg>
