<svg width="16" height="16" viewBox="0 0 16 16" fill="none" xmlns="http://www.w3.org/2000/svg">
<path d="M8.00006 15.4994C12.1401 15.4994 15.5001 12.1386 15.5001 7.99936C15.5001 3.85861 12.1401 0.499359 8.00006 0.499358C3.85256 0.499358 0.500062 3.85861 0.500062 7.99936C0.500061 12.1386 3.85256 15.4994 8.00006 15.4994Z" fill="#1F8FEB"/>
<path d="M5.78216 5.88345C5.35442 5.88345 4.99769 5.52238 5.12171 5.11301C5.25084 4.68673 5.48111 4.32147 5.8125 4.01724C6.33301 3.53905 7.05241 3.29996 7.9707 3.29996C8.83398 3.29996 9.53223 3.52424 10.0654 3.97281C10.6029 4.42138 10.8716 4.9969 10.8716 5.69937C10.8716 6.6092 10.423 7.33072 9.52588 7.86392C9.11117 8.10513 8.82975 8.3273 8.68164 8.53043C8.53353 8.73355 8.45947 8.9938 8.45947 9.31119C8.45947 9.51452 8.29464 9.67935 8.09131 9.67935H7.43754C7.18759 9.67935 6.98399 9.47859 6.98047 9.22867C6.95085 8.76741 7.02913 8.3802 7.21533 8.06705C7.40576 7.7539 7.72314 7.46614 8.16748 7.20377C8.56527 6.96255 8.84033 6.74039 8.99268 6.53726C9.14502 6.32991 9.22119 6.06965 9.22119 5.7565C9.22119 5.41796 9.09847 5.14078 8.85303 4.92496C8.60758 4.70491 8.28597 4.59488 7.88818 4.59488C7.48193 4.59488 7.15397 4.71125 6.9043 4.944C6.81951 5.02304 6.74766 5.11135 6.68873 5.20893C6.48247 5.55054 6.18121 5.88345 5.78216 5.88345ZM8.396 12.4025C8.21826 12.576 8.00033 12.6628 7.74219 12.6628C7.48405 12.6628 7.264 12.576 7.08203 12.4025C6.9043 12.2248 6.81543 12.0111 6.81543 11.7614C6.81543 11.5117 6.9043 11.3001 7.08203 11.1266C7.264 10.9531 7.48405 10.8664 7.74219 10.8664C8.00033 10.8664 8.21826 10.9531 8.396 11.1266C8.57373 11.3001 8.6626 11.5117 8.6626 11.7614C8.6626 12.0111 8.57373 12.2248 8.396 12.4025Z" fill="#0F2055"/>
</svg>
