<svg width="19" height="19" viewBox="0 0 19 19" fill="none" xmlns="http://www.w3.org/2000/svg">
<path d="M3.57227 18.9531H15.418C17.4688 18.9531 18.4844 17.9375 18.4844 15.9258V4.00195C18.4844 1.99023 17.4688 0.974609 15.418 0.974609H3.57227C1.53125 0.974609 0.505859 1.98047 0.505859 4.00195V15.9258C0.505859 17.9473 1.53125 18.9531 3.57227 18.9531ZM9.50977 14.9883C9.07031 14.9883 8.74805 14.6758 8.74805 14.2266V9.2168L8.83594 7.07812L7.83008 8.28906L6.63867 9.49023C6.50195 9.62695 6.31641 9.71484 6.10156 9.71484C5.68164 9.71484 5.36914 9.39258 5.36914 8.98242C5.36914 8.76758 5.42773 8.5918 5.56445 8.45508L8.92383 5.10547C9.12891 4.90039 9.29492 4.82227 9.50977 4.82227C9.74414 4.82227 9.91016 4.91016 10.1055 5.10547L13.4551 8.45508C13.6016 8.5918 13.6699 8.76758 13.6699 8.98242C13.6699 9.39258 13.3477 9.71484 12.9277 9.71484C12.7129 9.71484 12.5273 9.63672 12.3906 9.49023L11.209 8.28906L10.1836 7.06836L10.2715 9.2168V14.2266C10.2715 14.6758 9.95898 14.9883 9.50977 14.9883Z" fill="#1F8FEB"/>
</svg>
