<svg width="18" height="18" viewBox="0 0 18 18" fill="none" xmlns="http://www.w3.org/2000/svg">
<path fill-rule="evenodd" clip-rule="evenodd" d="M15.6049 5.71814L15.1381 4.90807C14.7432 4.22263 13.868 3.98617 13.1816 4.37946V4.37946C12.8549 4.57194 12.465 4.62654 12.098 4.53124C11.7309 4.43594 11.4169 4.19856 11.2251 3.87146C11.1017 3.66354 11.0354 3.42672 11.0329 3.18496V3.18496C11.044 2.79734 10.8977 2.42173 10.6275 2.14368C10.3572 1.86563 9.98584 1.70882 9.59807 1.70898H8.65756C8.27766 1.70898 7.91342 1.86036 7.64544 2.12964C7.37745 2.39891 7.22782 2.76387 7.22965 3.14377V3.14377C7.21839 3.92812 6.5793 4.55804 5.79486 4.55795C5.5531 4.55544 5.31628 4.48914 5.10836 4.36573V4.36573C4.42199 3.97244 3.54677 4.2089 3.15184 4.89434L2.6507 5.71814C2.25625 6.40272 2.48949 7.27738 3.17244 7.67466V7.67466C3.61637 7.93096 3.88984 8.40462 3.88984 8.91722C3.88984 9.42982 3.61637 9.90349 3.17244 10.1598V10.1598C2.49036 10.5544 2.25686 11.4269 2.6507 12.1094V12.1094L3.12438 12.9264C3.30942 13.2603 3.61989 13.5066 3.98708 13.611C4.35428 13.7154 4.74792 13.6691 5.0809 13.4824V13.4824C5.40825 13.2914 5.79833 13.2391 6.16444 13.3371C6.53056 13.435 6.84237 13.6752 7.03056 14.0042C7.15396 14.2121 7.22027 14.4489 7.22278 14.6907V14.6907C7.22278 15.4831 7.86516 16.1255 8.65756 16.1255H9.59807C10.3878 16.1255 11.0291 15.4873 11.0329 14.6975V14.6975C11.031 14.3165 11.1816 13.9504 11.4511 13.681C11.7205 13.4115 12.0865 13.2609 12.4676 13.2628C12.7088 13.2692 12.9447 13.3353 13.1541 13.455V13.455C13.8387 13.8494 14.7134 13.6162 15.1107 12.9332V12.9332L15.6049 12.1094C15.7963 11.781 15.8488 11.3899 15.7508 11.0227C15.6529 10.6555 15.4126 10.3424 15.0832 10.1529V10.1529C14.7538 9.9634 14.5135 9.65036 14.4155 9.28313C14.3176 8.91591 14.3701 8.52479 14.5615 8.1964C14.6859 7.97918 14.866 7.79907 15.0832 7.67466V7.67466C15.7621 7.2776 15.9947 6.40805 15.6049 5.725V5.725V5.71814Z" stroke="white" stroke-linecap="round" stroke-linejoin="round"/>
<ellipse cx="9.13129" cy="8.91755" rx="1.97712" ry="1.97712" stroke="white" stroke-linecap="round" stroke-linejoin="round"/>
</svg>
