<svg width="18" height="18" viewBox="0 0 18 18" fill="none" xmlns="http://www.w3.org/2000/svg">
<path fill-rule="evenodd" clip-rule="evenodd" d="M12.2141 1.5H14.6641C15.6777 1.5 16.5 2.32942 16.5 3.35264V5.82308C16.5 6.84552 15.6777 7.67571 14.6641 7.67571H12.2141C11.1997 7.67571 10.3774 6.84552 10.3774 5.82308V3.35264C10.3774 2.32942 11.1997 1.5 12.2141 1.5Z" stroke="white" stroke-linecap="round" stroke-linejoin="round"/>
<path fill-rule="evenodd" clip-rule="evenodd" d="M3.33669 1.5H5.78587C6.80027 1.5 7.62256 2.32942 7.62256 3.35264V5.82308C7.62256 6.84552 6.80027 7.67571 5.78587 7.67571H3.33669C2.32228 7.67571 1.5 6.84552 1.5 5.82308V3.35264C1.5 2.32942 2.32228 1.5 3.33669 1.5Z" stroke="white" stroke-linecap="round" stroke-linejoin="round"/>
<path fill-rule="evenodd" clip-rule="evenodd" d="M3.33669 10.3242H5.78587C6.80027 10.3242 7.62256 11.1536 7.62256 12.1776V14.6473C7.62256 15.6705 6.80027 16.4999 5.78587 16.4999H3.33669C2.32228 16.4999 1.5 15.6705 1.5 14.6473V12.1776C1.5 11.1536 2.32228 10.3242 3.33669 10.3242Z" stroke="white" stroke-linecap="round" stroke-linejoin="round"/>
<path fill-rule="evenodd" clip-rule="evenodd" d="M12.2141 10.3242H14.6641C15.6777 10.3242 16.5 11.1536 16.5 12.1776V14.6473C16.5 15.6705 15.6777 16.4999 14.6641 16.4999H12.2141C11.1997 16.4999 10.3774 15.6705 10.3774 14.6473V12.1776C10.3774 11.1536 11.1997 10.3242 12.2141 10.3242Z" stroke="white" stroke-linecap="round" stroke-linejoin="round"/>
</svg>
