<svg width="18" height="18" viewBox="0 0 18 18" fill="none" xmlns="http://www.w3.org/2000/svg">
<path d="M7.58819 13.49H2.1626" stroke="white" stroke-linecap="round" stroke-linejoin="round"/>
<path fill-rule="evenodd" clip-rule="evenodd" d="M15.8386 13.49C15.8386 14.6829 14.8715 15.65 13.6786 15.65C12.4856 15.65 11.5186 14.6829 11.5186 13.49C11.5186 12.2961 12.4856 11.33 13.6786 11.33C14.8715 11.33 15.8386 12.2961 15.8386 13.49Z" stroke="white" stroke-linecap="round" stroke-linejoin="round"/>
<path d="M10.4121 4.69667H15.8386" stroke="white" stroke-linecap="round" stroke-linejoin="round"/>
<path fill-rule="evenodd" clip-rule="evenodd" d="M2.16211 4.69662C2.16211 5.89044 3.12917 6.85662 4.32211 6.85662C5.51505 6.85662 6.48211 5.89044 6.48211 4.69662C6.48211 3.50368 5.51505 2.53662 4.32211 2.53662C3.12917 2.53662 2.16211 3.50368 2.16211 4.69662Z" stroke="white" stroke-linecap="round" stroke-linejoin="round"/>
</svg>
