<svg width="18" height="18" viewBox="0 0 18 18" fill="none" xmlns="http://www.w3.org/2000/svg">
<path fill-rule="evenodd" clip-rule="evenodd" d="M15.605 5.71765L15.1382 4.90758C14.7432 4.22214 13.868 3.98568 13.1816 4.37898V4.37898C12.8549 4.57145 12.465 4.62605 12.098 4.53075C11.731 4.43545 11.4169 4.19808 11.2251 3.87097C11.1017 3.66305 11.0354 3.42623 11.0329 3.18447V3.18447C11.044 2.79686 10.8978 2.42124 10.6275 2.14319C10.3572 1.86514 9.98589 1.70834 9.59811 1.7085H8.65761C8.27771 1.70849 7.91347 1.85987 7.64548 2.12915C7.3775 2.39842 7.22787 2.76338 7.22969 3.14328V3.14328C7.21843 3.92763 6.57934 4.55755 5.79491 4.55747C5.55314 4.55496 5.31633 4.48865 5.10841 4.36525V4.36525C4.42203 3.97195 3.54682 4.20841 3.15189 4.89385L2.65074 5.71765C2.25629 6.40223 2.48953 7.27689 3.17248 7.67417V7.67417C3.61641 7.93047 3.88988 8.40413 3.88988 8.91673C3.88988 9.42934 3.61641 9.903 3.17248 10.1593V10.1593C2.4904 10.5539 2.25691 11.4264 2.65074 12.109V12.109L3.12443 12.9259C3.30947 13.2598 3.61994 13.5062 3.98713 13.6105C4.35432 13.7149 4.74796 13.6686 5.08095 13.482V13.482C5.4083 13.2909 5.79838 13.2386 6.16449 13.3366C6.5306 13.4346 6.84241 13.6747 7.03061 14.0037C7.15401 14.2116 7.22032 14.4484 7.22283 14.6902V14.6902C7.22283 15.4826 7.8652 16.125 8.65761 16.125H9.59811C10.3878 16.125 11.0291 15.4868 11.0329 14.6971V14.6971C11.0311 14.316 11.1816 13.95 11.4511 13.6805C11.7206 13.411 12.0866 13.2604 12.4677 13.2623C12.7089 13.2687 12.9447 13.3348 13.1542 13.4545V13.4545C13.8388 13.8489 14.7134 13.6157 15.1107 12.9328V12.9328L15.605 12.109C15.7963 11.7806 15.8488 11.3894 15.7509 11.0222C15.653 10.655 15.4127 10.342 15.0832 10.1524V10.1524C14.7538 9.96291 14.5135 9.64987 14.4156 9.28264C14.3177 8.91542 14.3702 8.5243 14.5615 8.19591C14.6859 7.97869 14.866 7.79859 15.0832 7.67417V7.67417C15.7621 7.27711 15.9948 6.40756 15.605 5.72451V5.72451V5.71765Z" stroke="currentColor" stroke-linecap="round" stroke-linejoin="round"/>
<ellipse cx="9.13129" cy="8.91657" rx="1.97712" ry="1.97712" stroke="currentColor" stroke-linecap="round" stroke-linejoin="round"/>
</svg>
