<svg width="18" height="18" viewBox="0 0 18 18" fill="none" xmlns="http://www.w3.org/2000/svg">
<path d="M12.8583 8.32895C13.952 8.32895 14.8393 7.44231 14.8393 6.34856C14.8393 5.2548 13.952 4.36816 12.8583 4.36816" stroke="currentColor" stroke-linecap="round" stroke-linejoin="round"/>
<path d="M13.769 10.481C14.0956 10.5035 14.4204 10.5498 14.7401 10.6217C15.1844 10.7087 15.7187 10.8908 15.909 11.2894C16.0303 11.5447 16.0303 11.8419 15.909 12.0978C15.7194 12.4964 15.1844 12.6778 14.7401 12.7692" stroke="currentColor" stroke-linecap="round" stroke-linejoin="round"/>
<path d="M5.14156 8.32895C4.04781 8.32895 3.16055 7.44231 3.16055 6.34856C3.16055 5.2548 4.04781 4.36816 5.14156 4.36816" stroke="currentColor" stroke-linecap="round" stroke-linejoin="round"/>
<path d="M4.23084 10.481C3.90421 10.5035 3.57947 10.5498 3.25972 10.6217C2.81547 10.7087 2.2811 10.8908 2.09151 11.2894C1.9695 11.5447 1.9695 11.8419 2.09151 12.0978C2.28048 12.4964 2.81547 12.6778 3.25972 12.7692" stroke="currentColor" stroke-linecap="round" stroke-linejoin="round"/>
<path fill-rule="evenodd" clip-rule="evenodd" d="M8.99673 10.9072C11.213 10.9072 13.1064 11.2426 13.1064 12.5848C13.1064 13.9263 11.2255 14.2742 8.99673 14.2742C6.77982 14.2742 4.88702 13.9388 4.88702 12.5967C4.88702 11.2545 6.76793 10.9072 8.99673 10.9072Z" stroke="currentColor" stroke-linecap="round" stroke-linejoin="round"/>
<path fill-rule="evenodd" clip-rule="evenodd" d="M8.99673 8.993C7.53506 8.993 6.36309 7.82104 6.36309 6.35874C6.36309 4.89706 7.53506 3.7251 8.99673 3.7251C10.4584 3.7251 11.6304 4.89706 11.6304 6.35874C11.6304 7.82104 10.4584 8.993 8.99673 8.993Z" stroke="currentColor" stroke-linecap="round" stroke-linejoin="round"/>
</svg>
