<svg width="14" height="14" viewBox="0 0 14 14" fill="none" xmlns="http://www.w3.org/2000/svg">
<circle cx="7" cy="7" r="7" fill="white"/>
<path d="M8.75532 6.86184L10.5458 5.98158C10.642 5.94211 10.8076 5.94211 10.8808 6.00132C10.9578 6.06842 11.0155 6.23816 10.9963 6.34079C10.7575 7.46974 10.5073 8.59868 10.257 9.72368C10.2146 9.90921 10.0991 10 9.91045 10C7.96598 10 6.02151 10 4.07704 10C3.88067 10 3.76516 9.90921 3.7228 9.71184C3.48022 8.59474 3.23765 7.48158 3.01047 6.36053C2.98737 6.25395 2.99507 6.11184 3.11058 6.00921C3.2261 5.91053 3.34931 5.92237 3.48022 5.98947C4.05394 6.27763 4.6315 6.56184 5.22832 6.85789L6.66068 4.26842C6.73384 4.13026 6.807 4 6.98412 4C7.16124 4 7.23825 4.12237 7.31525 4.26053L8.75532 6.86184Z" fill="#FFC700"/>
</svg>
