<svg width="14" height="14" viewBox="0 0 14 14" fill="none" xmlns="http://www.w3.org/2000/svg">
<g clip-path="url(#clip0_4541_801)">
<path fill-rule="evenodd" clip-rule="evenodd" d="M7 14C10.866 14 14 10.866 14 7C14 3.13401 10.866 0 7 0C3.13401 0 0 3.13401 0 7C0 10.866 3.13401 14 7 14ZM6.22223 3.88889C6.22223 3.45933 6.57045 3.11111 7.00001 3.11111C7.42956 3.11111 7.77778 3.45933 7.77778 3.88889C7.77778 4.31844 7.42956 4.66667 7.00001 4.66667C6.57045 4.66667 6.22223 4.31844 6.22223 3.88889ZM6.22222 7.00003C6.22222 6.57047 6.57045 6.22225 7 6.22225C7.42955 6.22225 7.77778 6.57047 7.77778 7.00003V10.1111C7.77778 10.5407 7.42955 10.8889 7 10.8889C6.57045 10.8889 6.22222 10.5407 6.22222 10.1111V7.00003Z" fill="#1F8FEB"/>
</g>
<defs>
<clipPath id="clip0_4541_801">
<rect width="14" height="14" fill="white"/>
</clipPath>
</defs>
</svg>
