<svg width="18" height="18" viewBox="0 0 18 18" fill="none" xmlns="http://www.w3.org/2000/svg">
<path d="M8.534 2.52734H5.95322C3.83076 2.52734 2.5 4.02712 2.5 6.15037V11.878C2.5 14.0013 3.82455 15.5011 5.95322 15.5011H12.0438C14.1732 15.5011 15.4977 14.0013 15.4977 11.878V9.10308" stroke="currentColor" stroke-linecap="round" stroke-linejoin="round"/>
<path fill-rule="evenodd" clip-rule="evenodd" d="M6.69483 8.12881L11.8529 2.98052C12.4955 2.33983 13.5371 2.33983 14.1797 2.98052L15.0197 3.81894C15.6623 4.46032 15.6623 5.50059 15.0197 6.14128L9.83676 11.3144C9.55583 11.5948 9.17483 11.7525 8.77725 11.7525H6.19165L6.25653 9.14842C6.2662 8.76538 6.42288 8.40025 6.69483 8.12881Z" stroke="currentColor" stroke-linecap="round" stroke-linejoin="round"/>
<path d="M11.0691 3.77734L14.2207 6.92295" stroke="currentColor" stroke-linecap="round" stroke-linejoin="round"/>
</svg>
