<svg width="19" height="18" viewBox="0 0 19 18" fill="none" xmlns="http://www.w3.org/2000/svg">
<path d="M17.2441 1.21484C16.248 0.21875 14.8418 0.0625 13.1719 0.0625H5.79883C4.1582 0.0625 2.75195 0.21875 1.75586 1.21484C0.759766 2.21094 0.613281 3.60742 0.613281 5.23828V12.6211C0.613281 14.291 0.759766 15.6777 1.75586 16.6738C2.75195 17.6699 4.1582 17.8262 5.81836 17.8262H13.1719C14.8418 17.8262 16.248 17.6699 17.2441 16.6738C18.2402 15.6777 18.3867 14.291 18.3867 12.6211V5.26758C18.3867 3.59766 18.2402 2.20117 17.2441 1.21484ZM9.50977 3.82227C9.95898 3.82227 10.2715 4.13477 10.2715 4.58398V9.59375L10.1934 11.7422L11.209 10.5215L12.3906 9.32031C12.5273 9.16406 12.7129 9.0957 12.9277 9.0957C13.3477 9.0957 13.6699 9.4082 13.6699 9.82812C13.6699 10.043 13.6016 10.2188 13.4648 10.3555L10.1055 13.6953C9.91016 13.8906 9.74414 13.9883 9.50977 13.9883C9.29492 13.9883 9.13867 13.9004 8.93359 13.6953L5.57422 10.3555C5.42773 10.2188 5.36914 10.043 5.36914 9.82812C5.36914 9.4082 5.68164 9.0957 6.10156 9.0957C6.31641 9.0957 6.50195 9.17383 6.63867 9.32031L7.83008 10.5215L8.83594 11.7324L8.75781 9.59375V4.58398C8.75781 4.13477 9.07031 3.82227 9.50977 3.82227Z" fill="#1F8FEB"/>
</svg>
